<!-- Generated by IcoMoon.io -->
<svg version="1.1" xmlns="http://www.w3.org/2000/svg" width="24" height="24" viewBox="0 0 24 24">
<title>cart</title>
<path d="M19.082 12c0.926 0 1.732-0.637 1.945-1.538l1.574-6.643c0.316-1.262-0.639-2.485-1.939-2.485h-17.992c-0.736 0-1.333 0.597-1.333 1.333s0.597 1.333 1.333 1.333h1.333v11.333c0 1.105 0.895 2 1.999 2h13.995c0.736 0 1.333-0.597 1.333-1.333s-0.596-1.333-1.333-1.333h-13.328v-2.667h12.413zM6.669 4h13.15l-1.264 5.333h-11.887v-5.333zM7.335 18.667c-1.104 0-1.999 0.895-1.999 2s0.895 2 1.999 2 1.999-0.895 1.999-2-0.895-2-1.999-2zM17.998 18.667c-1.104 0-1.999 0.895-1.999 2s0.895 2 1.999 2 1.999-0.895 1.999-2-0.895-2-1.999-2z"></path>
</svg>
